<svg width="680" height="380" viewBox="0 0 680 380" role="img" xmlns="http://www.w3.org/2000/svg">
  <title>CAD and Form Validation Table — Pipeline Replacement QC</title>
  <desc>Tabla de validación de archivos CAD y formularios de campo para reemplazos de ductos</desc>
  <rect width="680" height="380" fill="#1e2a38" rx="8"/>
  <rect x="0" y="0" width="680" height="30" fill="#0d1520" rx="8"/>
  <rect x="0" y="20" width="680" height="10" fill="#0d1520"/>
  <text x="20" y="20" font-family="monospace" font-size="11" fill="#a0b0c0">CAD + Form Validation — Batch Review Table</text>
  <!-- toolbar -->
  <rect x="0" y="30" width="680" height="24" fill="#162030"/>
  <rect x="8" y="36" width="70" height="14" fill="#243047" rx="2"/>
  <text x="43" y="47" text-anchor="middle" font-family="monospace" font-size="9" fill="#8a9bb0">Filter ▾</text>
  <text x="260" y="47" font-family="monospace" font-size="9" fill="#5dade2">12 pipelines reviewed — 8 approved, 4 returned</text>
  <!-- headers -->
  <rect x="0" y="54" width="680" height="22" fill="#162030"/>
  <g font-family="monospace" font-size="9" fill="#a0b0c0" font-weight="bold">
    <text x="14" y="69">Pipeline ID</text>
    <line x1="100" y1="54" x2="100" y2="380" stroke="#243047" stroke-width="0.5"/>
    <text x="106" y="69">EP1 (m)</text>
    <line x1="160" y1="54" x2="160" y2="380" stroke="#243047" stroke-width="0.5"/>
    <text x="166" y="69">EP2 (m)</text>
    <line x1="220" y1="54" x2="220" y2="380" stroke="#243047" stroke-width="0.5"/>
    <text x="226" y="69">Layout</text>
    <line x1="270" y1="54" x2="270" y2="380" stroke="#243047" stroke-width="0.5"/>
    <text x="276" y="69">Nomen.</text>
    <line x1="330" y1="54" x2="330" y2="380" stroke="#243047" stroke-width="0.5"/>
    <text x="336" y="69">OMEGA</text>
    <line x1="390" y1="54" x2="390" y2="380" stroke="#243047" stroke-width="0.5"/>
    <text x="396" y="69">Survey date</text>
    <line x1="470" y1="54" x2="470" y2="380" stroke="#243047" stroke-width="0.5"/>
    <text x="476" y="69">Result</text>
    <line x1="540" y1="54" x2="540" y2="380" stroke="#243047" stroke-width="0.5"/>
    <text x="546" y="69">Observation</text>
  </g>
  <!-- Rows -->
  <g font-family="monospace" font-size="9">
    <!-- Row 1 Approved -->
    <rect x="0" y="76" width="680" height="22" fill="#0a1a0a"/>
    <text x="14" y="91" fill="#5dade2">PIP-001</text>
    <text x="106" y="91" fill="#27ae60">1.2</text>
    <text x="166" y="91" fill="#27ae60">2.8</text>
    <text x="226" y="91" fill="#27ae60">✓</text>
    <text x="276" y="91" fill="#27ae60">✓</text>
    <text x="336" y="91" fill="#27ae60">YES</text>
    <text x="396" y="91" fill="#27ae60">2024-03-15</text>
    <rect x="476" y="79" width="52" height="16" fill="#1a5a1a" stroke="#27ae60" stroke-width="0.5" rx="2"/>
    <text x="502" y="91" text-anchor="middle" fill="#27ae60" font-weight="bold">Approved</text>
    <text x="546" y="91" fill="#5a7a5a">—</text>
    <!-- Row 2 Returned -->
    <text x="14" y="113" fill="#5dade2">PIP-002</text>
    <text x="106" y="113" fill="#27ae60">0.8</text>
    <text x="166" y="113" fill="#e74c3c" font-weight="bold">6.5</text>
    <text x="226" y="113" fill="#e74c3c">✗</text>
    <text x="276" y="113" fill="#27ae60">✓</text>
    <text x="336" y="113" fill="#e74c3c">NO</text>
    <text x="396" y="113" fill="#27ae60">2024-03-18</text>
    <rect x="476" y="101" width="52" height="16" fill="#3a0808" stroke="#e74c3c" stroke-width="0.5" rx="2"/>
    <text x="502" y="113" text-anchor="middle" fill="#e74c3c" font-weight="bold">Returned</text>
    <text x="546" y="113" fill="#8a5050">EP2 &gt;5m; OMEGA</text>
    <!-- Row 3 Approved -->
    <rect x="0" y="120" width="680" height="22" fill="#0a1a0a"/>
    <text x="14" y="135" fill="#5dade2">PIP-003</text>
    <text x="106" y="135" fill="#27ae60">2.1</text>
    <text x="166" y="135" fill="#27ae60">3.4</text>
    <text x="226" y="135" fill="#27ae60">✓</text>
    <text x="276" y="135" fill="#27ae60">✓</text>
    <text x="336" y="135" fill="#27ae60">YES</text>
    <text x="396" y="135" fill="#27ae60">2024-03-20</text>
    <rect x="476" y="123" width="52" height="16" fill="#1a5a1a" stroke="#27ae60" stroke-width="0.5" rx="2"/>
    <text x="502" y="135" text-anchor="middle" fill="#27ae60" font-weight="bold">Approved</text>
    <text x="546" y="135" fill="#5a7a5a">—</text>
    <!-- Row 4 Returned -->
    <text x="14" y="157" fill="#5dade2">PIP-004</text>
    <text x="106" y="157" fill="#27ae60">1.5</text>
    <text x="166" y="157" fill="#27ae60">4.1</text>
    <text x="226" y="157" fill="#e74c3c">✗</text>
    <text x="276" y="157" fill="#e74c3c">✗</text>
    <text x="336" y="157" fill="#27ae60">YES</text>
    <text x="396" y="157" fill="#e74c3c">No data</text>
    <rect x="476" y="145" width="52" height="16" fill="#3a0808" stroke="#e74c3c" stroke-width="0.5" rx="2"/>
    <text x="502" y="157" text-anchor="middle" fill="#e74c3c" font-weight="bold">Returned</text>
    <text x="546" y="157" fill="#8a5050">Layout; date S/D</text>
    <!-- Row 5 Approved -->
    <rect x="0" y="164" width="680" height="22" fill="#0a1a0a"/>
    <text x="14" y="179" fill="#5dade2">PIP-005</text>
    <text x="106" y="179" fill="#27ae60">0.5</text>
    <text x="166" y="179" fill="#27ae60">1.8</text>
    <text x="226" y="179" fill="#27ae60">✓</text>
    <text x="276" y="179" fill="#27ae60">✓</text>
    <text x="336" y="179" fill="#27ae60">YES</text>
    <text x="396" y="179" fill="#27ae60">2024-04-02</text>
    <rect x="476" y="167" width="52" height="16" fill="#1a5a1a" stroke="#27ae60" stroke-width="0.5" rx="2"/>
    <text x="502" y="179" text-anchor="middle" fill="#27ae60" font-weight="bold">Approved</text>
    <text x="546" y="179" fill="#5a7a5a">—</text>
    <!-- Row 6 Returned -->
    <text x="14" y="201" fill="#5dade2">PIP-006</text>
    <text x="106" y="201" fill="#27ae60">3.2</text>
    <text x="166" y="201" fill="#f39c12" font-weight="bold">5.8</text>
    <text x="226" y="201" fill="#27ae60">✓</text>
    <text x="276" y="201" fill="#e74c3c">✗</text>
    <text x="336" y="201" fill="#e74c3c">NO</text>
    <text x="396" y="201" fill="#27ae60">2024-04-10</text>
    <rect x="476" y="189" width="52" height="16" fill="#3a0808" stroke="#e74c3c" stroke-width="0.5" rx="2"/>
    <text x="502" y="201" text-anchor="middle" fill="#e74c3c" font-weight="bold">Returned</text>
    <text x="546" y="201" fill="#8a5050">EP2 marg; Manifold ID</text>
    <!-- Row 7 -->
    <rect x="0" y="208" width="680" height="22" fill="#0a1a0a"/>
    <text x="14" y="223" fill="#5dade2">PIP-007</text>
    <text x="106" y="223" fill="#27ae60">1.8</text>
    <text x="166" y="223" fill="#27ae60">2.2</text>
    <text x="226" y="223" fill="#27ae60">✓</text>
    <text x="276" y="223" fill="#27ae60">✓</text>
    <text x="336" y="223" fill="#27ae60">YES</text>
    <text x="396" y="223" fill="#27ae60">2024-04-12</text>
    <rect x="476" y="211" width="52" height="16" fill="#1a5a1a" stroke="#27ae60" stroke-width="0.5" rx="2"/>
    <text x="502" y="223" text-anchor="middle" fill="#27ae60" font-weight="bold">Approved</text>
    <text x="546" y="223" fill="#5a7a5a">—</text>
    <!-- dots -->
    <text x="14" y="250" fill="#5a6a7a">...</text>
    <text x="546" y="250" fill="#5a6a7a">5 more pipelines</text>
  </g>
  <!-- Summary bar -->
  <rect x="0" y="295" width="680" height="50" fill="#0d1520"/>
  <line x1="0" y1="295" x2="680" y2="295" stroke="#243047" stroke-width="1"/>
  <text x="20" y="315" font-family="monospace" font-size="9" fill="#8a9bb0" font-weight="bold">Batch summary</text>
  <rect x="20" y="322" width="80" height="16" fill="#1a5a1a" stroke="#27ae60" stroke-width="0.5" rx="2"/>
  <text x="60" y="334" text-anchor="middle" font-family="monospace" font-size="9" fill="#27ae60">Approved: 8</text>
  <rect x="110" y="322" width="80" height="16" fill="#3a0808" stroke="#e74c3c" stroke-width="0.5" rx="2"/>
  <text x="150" y="334" text-anchor="middle" font-family="monospace" font-size="9" fill="#e74c3c">Returned: 4</text>
  <rect x="200" y="322" width="80" height="16" fill="#2a2a00" stroke="#f1c40f" stroke-width="0.5" rx="2"/>
  <text x="240" y="334" text-anchor="middle" font-family="monospace" font-size="9" fill="#f1c40f">Pending: 0</text>
  <text x="400" y="330" font-family="monospace" font-size="9" fill="#8a9bb0">Delivery rate: 66.7% approved on first review</text>
  <!-- bottom bar -->
  <rect x="0" y="345" width="680" height="35" fill="#0f1a26"/>
  <line x1="0" y1="345" x2="680" y2="345" stroke="#243047" stroke-width="1"/>
  <text x="20" y="366" font-family="monospace" font-size="9" fill="#8a9bb0">Batch date: 2024-04-15  |  Reviewed by: GIS Team  |  EP tolerance: ≤5m</text>
  <rect x="560" y="352" width="100" height="20" fill="#1e4d78" rx="3"/>
  <text x="610" y="366" text-anchor="middle" font-family="monospace" font-size="9" fill="#fff">Export .xlsx</text>
</svg>
